
        <svg xmlns="http://www.w3.org/2000/svg" xmlns:xlink="http://www.w3.org/1999/xlink" version="1.1" width="3162.15473409372" 
        height="883.2936822966553" viewBox="0 0 3162.15473409372 883.2936822966553">
			
			<g transform="scale(8.107736704685998) translate(10, 10)">
				<defs id="SvgjsDefs4318"></defs><g id="SvgjsG4319" featureKey="symbolFeature-0" transform="matrix(0.3637813681378642,0,0,0.3637813681378642,-28.229430836980367,-28.265816745002578)" fill="#3f63af"><g xmlns="http://www.w3.org/2000/svg"><path d="M182.4,123.3c6.4,1.9,12.9,3.2,19.5,4.1c1.7,0.2,3.4,0.4,5,0.6c0.1-0.6,0.2-1.3,0.3-1.9c0.7-4.3,1.5-8.7,2.2-13   c1.6-9.7,3.3-19.5,6.4-28.8c0.6-1.7,1.2-3.4,1.8-5.1c-4-0.6-8.1-1-12.1-1.2c-1-0.1-2-0.1-2.9-0.1c-0.7,5.6-2.1,11.1-4.1,16.3   c-2.8,7.5-6.4,14.7-10.8,21.5C186.1,118.2,184.3,120.7,182.4,123.3z"></path><path d="M204.9,146.2c0.2-3.1,0.4-6.2,0.8-9.3c-4.4-0.4-8.7-1.1-13-1.9c-5.5-1-11-2.4-16.3-4.1c-1,1.2-2.1,2.4-3.2,3.6   c-7.1,7.8-15.1,14.7-23.9,20.5c-2.5,1.7-5.1,3.3-7.8,4.8c1.6,7.2,2.2,14.8,1.6,22.1c-0.2,3-0.6,6.1-1.2,9.1   c1.5-0.2,2.9-0.4,4.4-0.6c20.3-2.8,40.4-6.7,60.2-11.9C204.9,167.8,204.3,157,204.9,146.2z"></path><path d="M133.1,217.4c-0.6,1.4-1.3,2.7-1.9,4c2.8,1,5.6,2.1,8.3,3.4c9.2,4.3,17.8,10,25.2,16.9c0.2,0.2,0.5,0.4,0.7,0.6   c13.1-17.3,25.7-35.1,37.1-53.5c-20.7,5.1-41.6,8.9-62.8,11.4C137.9,206.1,135.7,211.8,133.1,217.4z"></path><path d="M215.9,128.6c6,0.2,12.1,0.1,18.1-0.4c2.6-6.3,5-12.6,7.3-19.1c2.4-7.1,4.7-14.3,6.2-21.7c-0.9-0.4-1.9-0.8-2.8-1.2   c-5.8-2.3-11.8-4.2-18-5.6c-3.4,8.4-5.4,17.4-7.1,26.3c-0.8,4.3-1.5,8.7-2.2,13C216.9,122.9,216.4,125.7,215.9,128.6z"></path><path d="M220.6,137.7c-2,0-3.9-0.1-5.9-0.2c-1.1,10.4-1.3,20.8-0.3,31.1c5.7-10.2,10.9-20.6,15.7-31.2   C226.9,137.6,223.7,137.7,220.6,137.7z"></path><path d="M244.2,126.9c9.6-1.7,19-4.4,28.1-8.2c4.4-1.9,8.7-4,12.8-6.3c-5.2-5.1-10.9-9.8-17.1-13.9c-3.8-2.6-7.8-4.9-12.1-7.1   c-2.6,11.6-6.6,22.9-11,34C244.6,125.8,244.4,126.4,244.2,126.9z"></path><path d="M246.8,135.5c-2.2,0.4-4.4,0.7-6.6,1c-3,7.1-6.3,14.1-9.7,21c-2.9,5.7-5.9,11.3-9,16.8c16.6-4.9,32.9-10.6,48.9-17.3   c12.2-5.2,24.1-10.9,35.8-17.2c-0.7-1.2-1.4-2.4-2.1-3.5c-3.6-5.9-7.8-11.7-12.7-17.2c-4.3,2.5-8.8,4.8-13.4,6.8   C268,130.3,257.6,133.7,246.8,135.5z"></path><path d="M216.9,185c1.8,7.9,4.2,15.6,7.3,23.1c4.3,10.1,9.8,19.6,16.4,28.4c0.3,0.4,0.7,0.9,1,1.3c5.2-8.4,11.3-16.3,18-23.6   c8.4-9.1,17.8-17.3,28.1-24.1c9.9-6.5,20.5-11.9,31.6-16.1c-0.9-3.9-1.9-7.8-3.2-11.6c-1.6-4.9-3.6-9.8-5.8-14.5   c-7.2,3.9-14.4,7.5-21.8,10.9C265.4,169.5,241.4,178.2,216.9,185z"></path><path d="M321,182.9c-1.4,0.5-2.9,1.1-4.3,1.7c-11.5,4.9-22.3,11.2-32.2,18.7c-10,7.8-18.9,16.8-26.7,26.8c-3.6,4.7-6.9,9.6-10,14.7   c6.6,7.1,13.9,13.6,21.6,19.6c7.3,5.6,14.9,10.8,22.5,15.9c4.7-5.3,8.9-11,12.6-17c4.5-7.3,8.3-15.4,11.3-24.1   c2.7-8,4.7-16.7,5.7-25.9C322.6,203.4,322.4,193.1,321,182.9z"></path><path d="M221,222.2c-4.6-9-8.4-18.5-11.1-28.3c-11.8,18.9-24.8,37.1-38.2,54.8c1.8,2,3.6,4.1,5.3,6.3c3.8,4.8,7.4,9.9,10.6,15.2   c3.3,5.5,6.2,11.3,8.7,17.2c4.8-1.2,9.7-2.1,14.6-2.5c2.4-0.2,4.8-0.3,7.2-0.3c1.4,0,2.8,0,4.1,0.1c1-4.5,2.2-8.9,3.6-13.3   c2.9-8.8,6.6-17.3,11-25.4C230.7,238.6,225.4,230.7,221,222.2z"></path><path d="M220.5,293.6c-0.8,0-1.5,0-2.3,0c-3.5,0-6.9,0.2-10.4,0.7c-2.8,0.4-5.5,0.9-8.2,1.6c0.8,2.1,1.5,4.2,2.2,6.3   c2.1,6.5,3.8,13.2,5.3,19.9c4.3-0.3,8.7-0.8,13.2-1.5c-0.3-1.2-0.5-2.3-0.7-3.5c-0.7-5.1-0.7-10.2-0.2-15.4   C219.6,298.9,220,296.3,220.5,293.6z"></path><path d="M270.1,276.1c-9.5-7-18.7-14.4-26.9-23c-1.7,3.3-3.3,6.7-4.8,10.1c-3,7.3-5.4,14.8-7.2,22.5c5.1,0.9,10,2.4,14.8,4.2   c5.8,2.3,11.5,5,16.9,8.3c1.7,1,3.4,2.1,5.1,3.2c0.1-0.1,0.3-0.2,0.4-0.3c6.2-4.2,12-8.9,17.3-14.2c-0.2-0.2-0.5-0.3-0.7-0.5   C279.9,283.2,274.9,279.7,270.1,276.1z"></path><path d="M229.4,294.5c-0.3,1.7-0.6,3.3-0.8,5c-0.6,5.2-0.9,10.4-0.3,15.6c0.2,1.2,0.4,2.4,0.7,3.6c10.5-2.6,20.8-6.6,30.4-12   c-4.5-2.7-9.1-5.2-13.9-7.3C240.3,297.3,234.9,295.6,229.4,294.5z"></path><path d="M146.8,266.4c0,0-0.1,0.1-0.1,0.1c-0.2,0.3-0.4,0.5-0.6,0.8C146.4,267,146.6,266.7,146.8,266.4z"></path><path d="M158.7,250.9c0.4-0.5,0.7-0.9,1.1-1.4c-2.3-2.2-4.7-4.3-7.3-6.3c-6.1-4.6-12.6-8.4-19.6-11.5c-2-0.8-4-1.6-6.1-2.3   c-3.7,6.5-7.7,12.8-12.1,18.9c-5,7.1-10.4,13.9-15.8,20.7c1.3,1.9,2.8,3.9,4.4,6c5.2,6.7,11.1,12.9,17.6,18.4   c0.5,0.4,0.9,0.8,1.4,1.2c8.9-8.6,16.8-18.3,24.3-28.1C150.8,261.3,154.7,256.1,158.7,250.9z"></path><path d="M187.6,290c-4.4-9.9-9.9-19.3-16.5-27.9c-1.6-2.1-3.3-4.1-5.1-6.1c-0.9,1.1-1.7,2.2-2.6,3.3c-9.4,12.2-18.5,24.7-29.1,35.9   c-1.6,1.6-3.1,3.3-4.7,4.8c4.2,3,8.7,5.7,13.2,8.1c2.9,1.5,5.9,3,8.9,4.3c0.1-0.1,0.2-0.1,0.2-0.2c2.9-2.7,6-5.3,9.1-7.7   c4.3-3.4,8.8-6.4,13.7-9C179,293.5,183.2,291.6,187.6,290z"></path><path d="M186.1,300.2c-6.6,2.9-12.8,6.4-18.6,10.8c-2.1,1.6-4.2,3.3-6.2,5.1c2,0.7,4,1.3,6,1.8c8.3,2.3,17.1,3.7,26.3,4.2   c1.4,0.1,2.8,0.1,4.3,0.1c-1.9-8.1-4.1-16.1-6.9-23.9C189.3,298.9,187.7,299.6,186.1,300.2z"></path><path d="M113.2,193.7c3.7-0.3,7.4-0.6,11-0.9c2.8-0.2,5.6-0.5,8.3-0.8c0.5-2.1,0.9-4.3,1.2-6.4c0.7-6.1,0.8-12.1,0-18.2   c-0.2-1.1-0.3-2.2-0.6-3.3c-6.1,3-12.5,5.4-19,7.4c-11.1,3.3-22.7,5.2-34.2,5.2c-1.3,6.5-2.1,13.1-2.3,19.7   c8.3-0.2,16.6-0.9,24.8-1.7C106.1,194.3,109.7,194,113.2,193.7z"></path><path d="M109.8,216.3c4.3,0.6,8.5,1.3,12.7,2.4c1.6-3.1,3-6.2,4.4-9.4c1.1-2.7,2.1-5.4,3.1-8.1c-1.3,0.1-2.6,0.3-4,0.4   c-6.5,0.6-13,1.1-19.5,1.7c-6.5,0.6-13,1.3-19.6,1.7c-3,0.2-6,0.3-9.1,0.4c0.2,3.9,0.5,7.9,1.1,11.8c0.2,0,0.4-0.1,0.5-0.1   c6-1,12-1.6,18.1-1.6C101.6,215.5,105.7,215.8,109.8,216.3z"></path><path d="M117.9,226.9c-2.7-0.6-5.5-1.2-8.3-1.6c-4.1-0.5-8.3-0.8-12.4-0.8c-4.2,0-8.4,0.3-12.6,0.8c-1.4,0.2-2.8,0.4-4.2,0.7   c0.1,0.3,0.1,0.7,0.2,1c1.8,8.4,4.8,16.9,8.8,25.5c1.3,2.8,2.8,5.6,4.4,8.5c1.9-2.3,3.7-4.7,5.5-7   C106.1,245.3,112.4,236.3,117.9,226.9z"></path><path d="M153.5,109.3c5.4,4,11.2,7.3,17.4,9.9c0.9,0.4,1.7,0.7,2.6,1c0-0.1,0.1-0.1,0.1-0.2c5.9-7.7,11-16,14.9-25   c2.3-5.6,4.1-11.3,5-17.3c-0.2,0-0.4,0-0.6,0c-9.1,0.6-18.1,2.1-26.6,4.6c-8.2,2.4-16.3,5.7-24.2,10c-0.8,0.4-1.6,0.9-2.4,1.3   c1.1,1.9,2.3,3.8,3.7,5.6C146.3,103.1,149.7,106.4,153.5,109.3z"></path><path d="M127,129.7c3,3.7,5.7,7.6,7.9,11.8c1.5,3,2.9,6.1,4.1,9.2c4.4-2.6,8.7-5.5,12.8-8.6c5.6-4.4,10.8-9.4,15.6-14.7   c-0.7-0.3-1.4-0.6-2-0.9c-8.4-3.7-16.3-8.6-23-15c-3.3-3.2-6.3-6.7-8.8-10.6c-0.5-0.8-1-1.6-1.5-2.5c-3.9,2.7-7.8,5.6-11.6,8.9   c-2.5,2.1-4.9,4.4-7.4,6.9C118.2,119,122.7,124.3,127,129.7z"></path><path d="M123.8,158.5c2.4-1,4.8-2.2,7.2-3.4c-0.5-1.5-1-3-1.6-4.5c-2.2-5-4.9-9.7-8.2-14.1c-4.3-5.5-8.9-10.9-14.1-15.6   c-1.4,1.6-2.8,3.4-4.3,5.4c-5.2,6.8-9.7,14.3-13.5,22.3c-2.9,6.1-5.2,12.5-7,19c3.9-0.1,7.8-0.4,11.6-0.9   C104.1,165.3,114.2,162.5,123.8,158.5z"></path></g></g><g id="SvgjsG4320" featureKey="nameFeature-0" transform="matrix(0.9774452165578569,0,0,0.9774452165578569,106.02856657895069,3.7398306578145775)" fill="#3f63af"><path d="M19.92 40 l-4 0 l-6.8 -18.8 l0 18.8 l-6.08 0 l0 -28 l8.36 0 l6.52 18.32 l6.52 -18.32 l8.36 0 l0 28 l-6.08 0 l0 -18.8 z M51.456 40.48 c-7.08 0 -11.96 -4.48 -11.96 -10.92 l0 -17.56 l6.08 0 l0 17.56 c0 3.24 2.44 5.52 5.88 5.52 s5.88 -2.28 5.88 -5.52 l0 -17.56 l6.08 0 l0 17.56 c0 6.44 -4.88 10.92 -11.96 10.92 z M70.11200000000001 40 l0 -28 l6.08 0 l0 22.76 l12.56 0 l0 5.24 l-18.64 0 z M104.92800000000001 17.24 l0 22.76 l-6.08 0 l0 -22.76 l-7.96 0 l0 -5.24 l22 0 l0 5.24 l-7.96 0 z M123.50400000000002 12 l0 28 l-6.08 0 l0 -28 l6.08 0 z M143.4 40.48 c-8.28 0 -14.56 -6.04 -14.56 -14.48 s6.28 -14.48 14.56 -14.48 c3.88 0 7.48 1.48 10.32 4.28 l-3.96 4 c-1.56 -1.8 -3.96 -2.88 -6.36 -2.88 c-5.12 0 -8.32 4.12 -8.32 9.08 s3.2 9.08 8.32 9.08 c2.52 0 4.84 -1.12 6.52 -3.2 l4.32 3.52 c-2.76 3.32 -6.52 5.08 -10.84 5.08 z M164.616 12 l0 28 l-6.08 0 l0 -28 l6.08 0 z M187.51200000000003 40 l-5 -9.4 l-4.84 0 l0 9.4 l-6.08 0 l0 -28 l11.92 0 c6 0 10.24 3.84 10.24 9.2 c0 3.72 -2.08 6.76 -5.28 8.32 l5.84 10.48 l-6.8 0 z M177.67200000000003 25.36 l5.68 0 c2.44 0 4.24 -1.72 4.24 -4.04 s-1.84 -4.08 -4.24 -4.08 l-5.68 0 l0 8.12 z M212.36800000000002 40.48 c-8.28 0 -14.56 -6.04 -14.56 -14.48 s6.28 -14.48 14.56 -14.48 c3.88 0 7.48 1.48 10.32 4.28 l-3.96 4 c-1.56 -1.8 -3.96 -2.88 -6.36 -2.88 c-5.12 0 -8.32 4.12 -8.32 9.08 s3.2 9.08 8.32 9.08 c2.52 0 4.84 -1.12 6.52 -3.2 l4.32 3.52 c-2.76 3.32 -6.52 5.08 -10.84 5.08 z M227.50400000000002 40 l0 -28 l6.08 0 l0 22.76 l12.56 0 l0 5.24 l-18.64 0 z M270.08000000000004 34.76 l0 5.24 l-19.36 0 l0 -28 l19 0 l0 5.24 l-12.92 0 l0 6.08 l11.92 0 l0 5.24 l-11.92 0 l0 6.2 l13.28 0 z"></path></g><g id="SvgjsG4321" featureKey="sloganFeature-0" transform="matrix(0.7408207219304238,0,0,0.7408207219304238,109,58.78843423821564)" fill="#90b7fc"><path d="M0 6.021000000000001 l0.45998 0 l5.0286 13.978 l-0.45814 0 z M0.66972 6.021000000000001 l0.45998 0 l5.0286 13.978 l-0.45814 0 z M1.3395 6.021000000000001 l0.45998 0 l5.0286 13.978 l-0.45814 0 z M2.0092 6.021000000000001 l0.45998 0 l5.0286 13.978 l-0.45814 0 z M12.767 6.021000000000001 l0.45998 -0.000039062 l-5.0286 13.978 l-0.48941 0 l-5.0304 -13.978 l0.45998 0 l3.4756 9.6596 l3.4738 -9.6596 l0.45998 0 l-3.7056 10.296 l0.10672 0.29256 l3.8086 -10.589 l0.45998 0 l-4.0404 11.227 l0.10488 0.29256 l4.1454 -11.52 l0.45998 0 l-4.3754 12.158 l0.10672 0.29256 l4.4784 -12.451 l0.45998 0 l-4.6992 13.06 l-0.023926 -0.0073632 l0.11959 0.32936 z M29.0583 6.016 l0.46918 0 l-5.8308 13.983 l-0.46918 0 z M29.7261 6.016 l0.46918 0 l-5.8308 13.983 l-0.46734 0 z M30.395899999999997 6.016 l0.46734 0 l-5.8308 13.983 l-0.46734 0 z M31.063699999999997 6.016 l0.46918 0 l-5.8326 13.983 l-0.46734 0 z M37.5865 19.99939454 l-5.5714 -13.54 l-0.11959 0.28886 l5.4518 13.251 l-0.46734 0 l-5.2198 -12.688 l-0.11959 0.28886 l5.1022 12.401 l-0.46734 0 l-4.8702 -11.836 l-0.11959 0.28704 l4.7506 11.549 l-0.46734 0 l-4.5188 -10.984 l-0.11959 0.28704 l4.4012 10.695 l-0.46734 0 l-1.0488 -2.5538 l-6.2778 0 l-1.0653 2.5538 l-0.46918 0 l5.8308 -13.983 l0.5667 0 l5.7534 13.983 l-0.46734 0 z M33.5345 17.0132 l-0.092012 -0.22448 l-5.7332 0 l-0.093828 0.22448 l5.9191 0 z M33.2645 16.3564 l-0.093848 -0.22448 l-5.1886 0 l-0.093828 0.22448 l5.3763 0 z M32.9935 15.6994 l-0.093848 -0.22448 l-4.644 0 l-0.093828 0.22448 l4.8317 0 z M32.723299999999995 15.0426 l-0.091992 -0.22448 l-4.1012 0 l-0.093828 0.22448 l4.287 0 z M32.4529 14.3858 l-1.8583 -4.517 l-1.8841 4.517 l3.7424 0 z M52.589220000000005 19.99939454 l-0.43238 0 l0 -13.978 l0.43238 0 l0 13.978 z M53.2553 19.99939454 l-0.43238 0 l0 -13.978 l0.43238 0 l0 13.978 z M53.9214 19.99939454 l-0.43238 0 l0 -13.978 l0.43238 0 l0 13.978 z M54.5892 19.99939454 l-0.43238 0 l0 -13.978 l0.43238 0 l0 13.978 z M60.7328 17.3278 l-5.4774 0.000019531 l0 0.23551 l5.4775 0 l0 0.43055 l-5.4775 0 l0 0.23551 l5.4775 0 l0 0.43238 l-5.4775 0 l0 0.23367 l5.4775 0 l0 0.43238 l-5.4775 0 l0 0.23551 l5.4775 0 l0 0.43238 l-5.4775 0 l0 0.0036719 l-0.43238 0 l0 -13.978 l0.43238 0 l0 10.874 l5.4775 0 l0 0.43238 z M84.8515 5.819000000000001 l0.43242 0 l0 8.9512 c0 2.885 -2.346 5.231 -5.231 5.231 s-5.231 -2.346 -5.231 -5.231 l0 -8.9512 l0.43238 0 l0 8.9512 c0 2.6458 2.1528 4.7986 4.7986 4.7986 s4.7986 -2.1528 4.7986 -4.7986 l0 -8.9512 z M80.0535 19.35172 c-2.5262 0 -4.5832 -2.0552 -4.5832 -4.5814 l0 -8.9512 l0.43238 0 l0 8.9512 c0 2.2888 1.8602 4.1508 4.149 4.1508 s4.1508 -1.862 4.1508 -4.1508 l0 -8.9512 l0.43238 0 l0 8.9512 c0 2.5262 -2.0552 4.5814 -4.5814 4.5814 z M80.0535 18.7041 c-2.1692 0 -3.9338 -1.7663 -3.9338 -3.9338 l0 -8.9512 l0.43238 0 l0 8.9512 c0 1.9301 1.5713 3.5014 3.5014 3.5014 s3.5014 -1.5713 3.5014 -3.5014 l0 -8.9512 l0.43238 0 l0 8.9512 c0 2.1692 -1.7645 3.9338 -3.9338 3.9338 z M80.0535 18.0546 c-1.8123 0 -3.2862 -1.4738 -3.2862 -3.2842 l0 -8.9512 l0.43238 0 l0 8.9512 c0 1.5731 1.2806 2.8538 2.8538 2.8538 s2.8538 -1.2806 2.8538 -2.8538 l0 -8.9512 l0.43238 0 l0 8.9494 c0 1.8123 -1.4738 3.2862 -3.2862 3.2862 z M80.0535 17.407 c-1.4554 0 -2.6384 -1.1831 -2.6384 -2.6366 l0 -8.9512 l0.43238 0 l0 8.9512 c0 1.2162 0.98988 2.206 2.206 2.206 s2.206 -0.98988 2.206 -2.206 l0 -8.9512 l0.43238 0 l0 8.9494 c0 1.4554 -1.1831 2.6384 -2.6384 2.6384 z M99.82238000000001 20.0012305 l-0.43238 0 l0 -13.982 l0.43238 0 l0 13.982 z M100.48840000000001 20.0012305 l-0.43238 0 l0 -13.982 l0.43238 0 l0 13.982 z M101.15640000000002 20.0012305 l-0.43238 0 l0 -13.982 l0.43238 0 l0 13.982 z M101.82240000000002 20.0012305 l-0.43238 0 l0 -13.982 l0.43238 0 l0 13.982 z M107.56120000000001 6.449999999999999 l-5.0708 0.000019531 l0 0.23551 l5.0708 0 l0 0.43238 l-5.0708 0 l0 0.23367 l5.0708 0 l0 0.43238 l-5.0708 0 l0 0.23551 l5.0708 0 l0 0.43238 l-5.0708 0 l0 0.23367 l5.0708 0 l0 0.43238 l-5.0708 0 l0 2.6863 l3.6891 0 l0 0.43238 l-3.6891 0 l0 0.23551 l3.6891 0 l0 0.43055 l-3.6891 0 l0 0.23551 l3.6891 0 l0 0.43238 l-3.6891 0 l0 0.23367 l3.6891 0 l0 0.43238 l-3.6891 0 l0 0.23551 l3.6891 0 l0 0.43238 l-3.6891 0 l0 1.9963 l5.0708 0 l0 0.43238 l-5.0708 0 l0 0.23367 l5.0708 0 l0 0.43238 l-5.0708 0 l0 0.23551 l5.0708 0 l0 0.43055 l-5.0708 0 l0 0.23551 l5.0708 0 l0 0.43238 l-5.0708 0 l0 0.23367 l5.0708 0 l0 0.43238 l-5.5032 0 l0 -13.98 l5.5032 0 l0 0.43055 z M143.13240000000002 12.8292 l0.3919 -0.18031 l3.4076 7.3506 l-0.47654 0 z M143.74140000000003 12.5588 l0.39192 -0.18031 l3.5326 7.621 l-0.47654 0 z M144.3248 12.2422 l0.39376 -0.18215 l3.6836 7.9392 l-0.47654 0 z M140.31738 19.99939454 l-0.43238 0 l0 -13.971 l0.43238 0 l0 13.971 z M140.98340000000002 19.99939454 l-0.43238 0 l0 -13.971 l0.43238 0 l0 13.971 z M141.65140000000002 19.99939454 l-0.43238 0 l0 -13.971 l0.43238 0 l0 13.971 z M142.31740000000002 19.99939454 l-0.43238 0 l0 -13.971 l0.43238 0 l0 13.971 z M146.55300000000003 14.428 l2.5852 5.5732 l-0.47654 0 l-3.7498 -8.0884 l0.2208 -0.16191 c0.39558 -0.27784 0.63662 -0.73414 0.63662 -1.218 c0 -0.81876 -0.66606 -1.483 -1.483 -1.483 l-1.3008 0 l0 4.0184 l3.2126 6.931 l-0.47654 0 l-2.736 -5.9026 l0 5.9025 l-0.43238 0 l0 -13.971 l1.7314 0 c2.4858 0 4.5078 2.022 4.5078 4.5078 c0 1.6063 -0.85556 3.0818 -2.2392 3.8914 z M145.45080000000002 12.0472 l0.091992 0.2024 c0.54278 -0.39926 0.87212 -1.0395 0.87212 -1.7166 c0 -1.1757 -0.95676 -2.1306 -2.1306 -2.1306 l-1.3008 0 l0 0.21527 l1.3008 0 c1.0561 0 1.9154 0.85924 1.9154 1.9154 c0 0.5943 -0.27966 1.1518 -0.74884 1.5143 z M145.72860000000003 12.6488 l0.090136 0.19867 c0.77278 -0.51334 1.2438 -1.3836 1.2438 -2.3146 c0 -1.5327 -1.2456 -2.7782 -2.7782 -2.7782 l-1.3008 0 l0 0.21527 l1.3008 0 c1.4131 0 2.563 1.15 2.563 2.563 c0 0.8427 -0.42502 1.6412 -1.1187 2.116 z M146.0046 13.241399999999999 l0.092012 0.19691 c1.0028 -0.62558 1.6173 -1.7222 1.6173 -2.907 c0 -1.8878 -1.5382 -3.426 -3.4278 -3.426 l-1.3008 0 l0 0.21527 l1.3008 0 c1.77 0 3.2106 1.4407 3.2106 3.2106 c0 1.1003 -0.56854 2.1214 -1.4922 2.7102 z M146.27880000000002 13.8338 l0.093848 0.20056 c1.2291 -0.73598 1.989 -2.0608 1.989 -3.4978 c0 -2.2466 -1.8289 -4.0754 -4.0754 -4.0754 l-1.3008 0 l0 0.21344 l1.3008 0 c2.127 0 3.8584 1.7314 3.8584 3.8584 c0 1.3523 -0.71204 2.6016 -1.8657 3.3008 z M170.17010000000002 5.6850000000000005 c4.046 0 7.3376 3.2898 7.3376 7.3376 c0 4.046 -3.2916 7.3376 -7.3376 7.3376 s-7.3376 -3.2916 -7.3376 -7.3376 s3.2916 -7.3376 7.3376 -7.3376 z M170.17010000000002 19.9258 c3.8068 0 6.9052 -3.0984 6.9052 -6.9052 s-3.0984 -6.9052 -6.9052 -6.9052 s-6.9052 3.0966 -6.9052 6.9052 s3.0984 6.9052 6.9052 6.9052 z M170.17010000000002 6.332000000000001 c3.689 0 6.69 3.001 6.6882 6.6882 c0 3.6872 -3.001 6.6882 -6.6882 6.6882 s-6.6882 -2.999 -6.6882 -6.6882 c0 -3.6872 2.999 -6.6882 6.6882 -6.6882 z M170.17010000000002 19.27814 c3.4498 0 6.2576 -2.8078 6.2558 -6.2558 c0 -3.4518 -2.8058 -6.2576 -6.2558 -6.2576 s-6.2576 2.8078 -6.2576 6.2576 s2.8078 6.2558 6.2576 6.2558 z M170.17010000000002 6.98 c3.332 0 6.0404 2.7102 6.0404 6.0404 s-2.7102 6.0404 -6.0404 6.0404 s-6.0404 -2.7102 -6.0404 -6.0404 s2.7102 -6.0404 6.0404 -6.0404 z M170.17010000000002 18.6287 c3.093 0 5.608 -2.5152 5.608 -5.608 s-2.5152 -5.608 -5.608 -5.608 s-5.608 2.5152 -5.608 5.608 s2.5152 5.608 5.608 5.608 z M170.17010000000002 7.628 c2.9734 0 5.3928 2.4196 5.3928 5.3928 s-2.4196 5.3928 -5.3928 5.3928 s-5.3928 -2.4196 -5.3928 -5.3928 s2.4196 -5.3928 5.3928 -5.3928 z M170.17010000000002 17.981 c2.736 0 4.9604 -2.2244 4.9604 -4.9604 s-2.2244 -4.9604 -4.9604 -4.9604 s-4.9604 2.2244 -4.9604 4.9604 s2.2244 4.9604 4.9604 4.9604 z M170.17010000000002 8.277 c2.6164 0 4.7452 2.127 4.7434 4.7434 c0 2.6146 -2.127 4.7434 -4.7434 4.7434 s-4.7452 -2.127 -4.7452 -4.7434 c0 -2.6146 2.1288 -4.7434 4.7452 -4.7434 z M170.17010000000002 17.3334 c2.379 0 4.3128 -1.9338 4.3128 -4.3128 s-1.9356 -4.3128 -4.3128 -4.3128 s-4.3128 1.9338 -4.3128 4.3128 s1.9356 4.3128 4.3128 4.3128 z M201.229 5.819000000000001 l0.43242 0 l0 8.9512 c0 2.885 -2.346 5.231 -5.231 5.231 s-5.231 -2.346 -5.231 -5.231 l0 -8.9512 l0.43238 0 l0 8.9512 c0 2.6458 2.1528 4.7986 4.7986 4.7986 s4.7986 -2.1528 4.7986 -4.7986 l0 -8.9512 z M196.431 19.35172 c-2.5262 0 -4.5832 -2.0552 -4.5832 -4.5814 l0 -8.9512 l0.43238 0 l0 8.9512 c0 2.2888 1.8602 4.1508 4.149 4.1508 s4.1508 -1.862 4.1508 -4.1508 l0 -8.9512 l0.43238 0 l0 8.9512 c0 2.5262 -2.0552 4.5814 -4.5814 4.5814 z M196.431 18.7041 c-2.1692 0 -3.9338 -1.7663 -3.9338 -3.9338 l0 -8.9512 l0.43238 0 l0 8.9512 c0 1.9301 1.5713 3.5014 3.5014 3.5014 s3.5014 -1.5713 3.5014 -3.5014 l0 -8.9512 l0.43238 0 l0 8.9512 c0 2.1692 -1.7645 3.9338 -3.9338 3.9338 z M196.431 18.0546 c-1.8123 0 -3.2862 -1.4738 -3.2862 -3.2842 l0 -8.9512 l0.43238 0 l0 8.9512 c0 1.5731 1.2806 2.8538 2.8538 2.8538 s2.8538 -1.2806 2.8538 -2.8538 l0 -8.9512 l0.43238 0 l0 8.9494 c0 1.8123 -1.4738 3.2862 -3.2862 3.2862 z M196.431 17.407 c-1.4554 0 -2.6384 -1.1831 -2.6384 -2.6366 l0 -8.9512 l0.43238 0 l0 8.9512 c0 1.2162 0.98988 2.206 2.206 2.206 s2.206 -0.98988 2.206 -2.206 l0 -8.9512 l0.43238 0 l0 8.9494 c0 1.4554 -1.1831 2.6384 -2.6384 2.6384 z M223.9427 6.52 l-8.6753 0 l0 -0.43238 l8.6753 0 l0 0.43238 z M223.9427 7.188000000000001 l-8.6753 0 l0 -0.43238 l8.6753 0 l0 0.43238 z M223.9427 7.853999999999999 l-8.6753 0 l0 -0.43238 l8.6753 0 l0 0.43238 z M223.9427 8.522 l-8.6753 0 l0 -0.43238 l8.6753 0 l0 0.43238 z M215.2675 9.188 l0 -0.43238 l8.6771 0 l0 0.43238 l-2.7893 0 l0 10.811 l-0.43055 0 l0 -10.811 l-0.23551 0 l0 10.811 l-0.43238 0 l0 -10.811 l-0.23367 0 l0 10.811 l-0.43238 0 l0 -10.811 l-0.23551 0 l0 10.811 l-0.43238 0 l0 -10.811 l-0.23367 0 l0 10.811 l-0.43238 0 l0 -10.811 l-2.7893 0 z M237.96738000000002 20.0012305 l-0.43238 0 l0 -13.982 l0.43238 0 l0 13.982 z M238.63340000000002 20.0012305 l-0.43238 0 l0 -13.982 l0.43238 0 l0 13.982 z M239.30140000000003 20.0012305 l-0.43238 0 l0 -13.982 l0.43238 0 l0 13.982 z M239.96740000000003 20.0012305 l-0.43238 0 l0 -13.982 l0.43238 0 l0 13.982 z M245.70620000000002 6.449999999999999 l-5.0708 0.000019531 l0 0.23551 l5.0708 0 l0 0.43238 l-5.0708 0 l0 0.23367 l5.0708 0 l0 0.43238 l-5.0708 0 l0 0.23551 l5.0708 0 l0 0.43238 l-5.0708 0 l0 0.23367 l5.0708 0 l0 0.43238 l-5.0708 0 l0 2.6863 l3.6891 0 l0 0.43238 l-3.6891 0 l0 0.23551 l3.6891 0 l0 0.43055 l-3.6891 0 l0 0.23551 l3.6891 0 l0 0.43238 l-3.6891 0 l0 0.23367 l3.6891 0 l0 0.43238 l-3.6891 0 l0 0.23551 l3.6891 0 l0 0.43238 l-3.6891 0 l0 1.9963 l5.0708 0 l0 0.43238 l-5.0708 0 l0 0.23367 l5.0708 0 l0 0.43238 l-5.0708 0 l0 0.23551 l5.0708 0 l0 0.43055 l-5.0708 0 l0 0.23551 l5.0708 0 l0 0.43238 l-5.0708 0 l0 0.23367 l5.0708 0 l0 0.43238 l-5.5032 0 l0 -13.98 l5.5032 0 l0 0.43055 z M263.04990000000004 12.8292 l0.3919 -0.18031 l3.4076 7.3506 l-0.47654 0 z M263.6589 12.5588 l0.39192 -0.18031 l3.5326 7.621 l-0.47654 0 z M264.2423 12.2422 l0.39376 -0.18215 l3.6836 7.9392 l-0.47654 0 z M260.23488000000003 19.99939454 l-0.43238 0 l0 -13.971 l0.43238 0 l0 13.971 z M260.90090000000004 19.99939454 l-0.43238 0 l0 -13.971 l0.43238 0 l0 13.971 z M261.5689 19.99939454 l-0.43238 0 l0 -13.971 l0.43238 0 l0 13.971 z M262.2349 19.99939454 l-0.43238 0 l0 -13.971 l0.43238 0 l0 13.971 z M266.4705 14.428 l2.5852 5.5732 l-0.47654 0 l-3.7498 -8.0884 l0.2208 -0.16191 c0.39558 -0.27784 0.63662 -0.73414 0.63662 -1.218 c0 -0.81876 -0.66606 -1.483 -1.483 -1.483 l-1.3008 0 l0 4.0184 l3.2126 6.931 l-0.47654 0 l-2.736 -5.9026 l0 5.9025 l-0.43238 0 l0 -13.971 l1.7314 0 c2.4858 0 4.5078 2.022 4.5078 4.5078 c0 1.6063 -0.85556 3.0818 -2.2392 3.8914 z M265.36830000000003 12.0472 l0.091992 0.2024 c0.54278 -0.39926 0.87212 -1.0395 0.87212 -1.7166 c0 -1.1757 -0.95676 -2.1306 -2.1306 -2.1306 l-1.3008 0 l0 0.21527 l1.3008 0 c1.0561 0 1.9154 0.85924 1.9154 1.9154 c0 0.5943 -0.27966 1.1518 -0.74884 1.5143 z M265.6461 12.6488 l0.090136 0.19867 c0.77278 -0.51334 1.2438 -1.3836 1.2438 -2.3146 c0 -1.5327 -1.2456 -2.7782 -2.7782 -2.7782 l-1.3008 0 l0 0.21527 l1.3008 0 c1.4131 0 2.563 1.15 2.563 2.563 c0 0.8427 -0.42502 1.6412 -1.1187 2.116 z M265.9221 13.241399999999999 l0.092012 0.19691 c1.0028 -0.62558 1.6173 -1.7222 1.6173 -2.907 c0 -1.8878 -1.5382 -3.426 -3.4278 -3.426 l-1.3008 0 l0 0.21527 l1.3008 0 c1.77 0 3.2106 1.4407 3.2106 3.2106 c0 1.1003 -0.56854 2.1214 -1.4922 2.7102 z M266.1963 13.8338 l0.093848 0.20056 c1.2291 -0.73598 1.989 -2.0608 1.989 -3.4978 c0 -2.2466 -1.8289 -4.0754 -4.0754 -4.0754 l-1.3008 0 l0 0.21344 l1.3008 0 c2.127 0 3.8584 1.7314 3.8584 3.8584 c0 1.3523 -0.71204 2.6016 -1.8657 3.3008 z"></path></g>
			</g>
		</svg>
	